# xmcd
#
# Track frame offsets: 
#        150
#        14788
#        24968
#        34500
#        46566
#        63816
#        74839
#        100696
#        113520
#        123983
#        138572
#        147817
#        159702
#        175350
#        183762
#        205942
#        217217
#
# Disc length: 3065 seconds
#
# Revision: 1
# Processed by: cddbd v1.5.2PL0 Copyright (c) Steve Scherf et al.
# Submitted via: ExactAudioCopy v1.0b2
#
DISCID=ef0bf711
DTITLE=Various Artist - Let's Boogaloo! Vol.4
DYEAR=2007
DGENRE=Boogaloo/Funk/Soul
TTITLE0=The New Mastersounds - Thirty Three
TTITLE1=The Bells - Don't Pretend
TTITLE2=Lebron Brothers - Boogaloo Lebron
TTITLE3=The Diplomats - Cards On The Table
TTITLE4=Baby Charles - No Controlling Me
TTITLE5=Little Ann - One Way Street
TTITLE6=Osaka Monaurail - Down And Out
TTITLE7=Billy Garner - You're Wasting My Time
TTITLE8=Bobby Garrett - Keep It Coming
TTITLE9=Ralph Robles - Taking Over
TTITLE10=The Ovations - They Say
TTITLE11=Frankie Crocker - Ton Of Dynamite
TTITLE12=Ann Alford - Got To Get Me A Job
TTITLE13=James Carr - That's What I Want To Know
TTITLE14=Eddie Palmieri - Melao Para El Sapo
TTITLE15=The Harvey Averne Dozen - Dynamite
TTITLE16=The Sweet Vandals - Papa's Got A Brand New Bag
EXTD=YEAR: 2007
EXTT0=
EXTT1=
EXTT2=
EXTT3=
EXTT4=
EXTT5=
EXTT6=
EXTT7=
EXTT8=
EXTT9=
EXTT10=
EXTT11=
EXTT12=
EXTT13=
EXTT14=
EXTT15=
EXTT16=
PLAYORDER=
